<?xml version="1.0" encoding="UTF-8"?>
<!DOCTYPE svg PUBLIC "-//W3C//DTD SVG 1.1//EN" "http://www.w3.org/Graphics/SVG/1.1/DTD/svg11.dtd">
<!-- Creator: CorelDRAW X8 -->
<svg xmlns="http://www.w3.org/2000/svg" xml:space="preserve" width="93.399mm" height="93.399mm" version="1.1" style="shape-rendering:geometricPrecision; text-rendering:geometricPrecision; image-rendering:optimizeQuality; fill-rule:evenodd; clip-rule:evenodd"
viewBox="0 0 9340 9340"
 xmlns:xlink="http://www.w3.org/1999/xlink">
 <defs>
  <style type="text/css">
   <![CDATA[
    .fil2 {fill:black}
    .fil0 {fill:#4F80B8}
    .fil1 {fill:white}
   ]]>
  </style>
 </defs>
 <g id="Слой_x0020_1">
  <metadata id="CorelCorpID_0Corel-Layer"/>
  <g id="_2619222434336">
   <rect class="fil0" transform="matrix(3.34284 3.34284 -3.34284 3.34284 4669.95 0.00724721)" width="1397" height="1397"/>
   <rect class="fil1" transform="matrix(2.276 2.276 -2.276 2.276 4669.95 1490.38)" width="1397" height="1397"/>
   <g>
    <path class="fil2" d="M5665 4916l0 924c0,103 -85,188 -188,188l-556 0 0 -716c0,-9 -19,-28 -29,-28l-442 0c-19,0 -38,19 -38,28l0 716 -556 0c-104,0 -189,-85 -189,-188l0 -924 -207 0c-113,0 -170,-132 -94,-217l1187 -1338c57,-66 170,-66 226,0l1197 1338c76,85 10,217 -103,217l-208 0 0 0z"/>
   </g>
  </g>
 </g>
</svg>
