<?xml version="1.0" encoding="UTF-8"?>
<!DOCTYPE svg PUBLIC "-//W3C//DTD SVG 1.1//EN" "http://www.w3.org/Graphics/SVG/1.1/DTD/svg11.dtd">
<!-- Creator: CorelDRAW X8 -->
<svg xmlns="http://www.w3.org/2000/svg" xml:space="preserve" width="304.749mm" height="165.159mm" version="1.1" style="shape-rendering:geometricPrecision; text-rendering:geometricPrecision; image-rendering:optimizeQuality; fill-rule:evenodd; clip-rule:evenodd"
viewBox="0 0 30475 16516"
 xmlns:xlink="http://www.w3.org/1999/xlink">
 <defs>
  <style type="text/css">
   <![CDATA[
    .fil0 {fill:black}
    .fil1 {fill:#2991CE}
   ]]>
  </style>
 </defs>
 <g id="Слой_x0020_1">
  <metadata id="CorelCorpID_0Corel-Layer"/>
  <g id="_2619078410192">
   <path class="fil0" d="M1905 12707c572,0 1085,252 1434,652l-659 564c-190,-213 -467,-348 -775,-348 -573,0 -1037,464 -1037,1036 0,573 464,1037 1037,1037 306,0 581,-133 770,-344l658 566c-349,396 -859,646 -1428,646 -1052,0 -1905,-853 -1905,-1905 0,-1052 853,-1904 1905,-1904zm10354 2955l-288 -5 0 -763c287,-15 707,-67 818,224 164,430 -168,544 -530,544zm-1209 -2843l4 0 0 -2 569 2 348 0 0 2 1428 7 -10 732 -1418 0 0 563c553,37 981,-26 1368,273 295,228 488,737 337,1250 -266,908 -1340,819 -2367,786l-259 0 0 -7 -9 0 9 -2579 0 -1027zm-2068 882l332 1256 -688 -12 356 -1244zm-548 1961l1097 3 254 766 892 1 -1228 -3614 -939 0 -1206 3611 876 3 254 -770zm-4620 -2838l920 0 0 736 0 692 1250 0 0 -692 0 -736 913 0 8 0 0 3608 -921 0 0 -906 0 -499 -1250 0 0 499 0 906 -920 0 0 -3608z"/>
   <g>
    <path class="fil0" d="M10153 4420c107,-64 460,-615 1385,-818 637,-139 1340,2 1927,169 1917,546 5015,2378 6559,409 197,-252 319,-340 317,-804 -6,-1050 33,-2400 -11,-3376l-10171 2 -6 4418z"/>
    <path class="fil1" d="M10156 10061l10176 27 10 -4372c-1675,1869 -5046,49 -6788,-520 -1457,-477 -2402,-424 -3202,625 -326,428 -207,1167 -207,1993 0,713 -39,1549 11,2247z"/>
   </g>
   <path class="fil1" d="M27547 14266l579 1577 759 2 556 -1584 147 2172 887 -1 -298 -3616 -966 9 -718 2039 -699 -2049 -968 11 -267 3609 863 -3 125 -2166zm-12046 -1442l921 0 1250 0 912 0 8 0 0 3608 -920 0 0 -2872 -1250 0 0 2872 -921 0 0 -3608zm4728 766c486,-52 905,-34 899,476 -5,509 -419,477 -898,475l-1 -951zm8 1741c357,-28 1015,57 1413,-316 280,-262 482,-792 327,-1355 -276,-1006 -1506,-927 -2637,-831l1 3603 884 0 12 -1101zm3977 -2624c1052,0 1905,852 1905,1904 0,1052 -853,1905 -1905,1905 -1052,0 -1904,-853 -1904,-1905 0,-1052 852,-1904 1904,-1904zm0 868c573,0 1037,464 1037,1036 0,573 -464,1037 -1037,1037 -572,0 -1036,-464 -1036,-1037 0,-572 464,-1036 1036,-1036z"/>
  </g>
 </g>
</svg>
