<?xml version="1.0" encoding="UTF-8"?>
<!DOCTYPE svg PUBLIC "-//W3C//DTD SVG 1.1//EN" "http://www.w3.org/Graphics/SVG/1.1/DTD/svg11.dtd">
<!-- Creator: CorelDRAW X8 -->
<svg xmlns="http://www.w3.org/2000/svg" xml:space="preserve" width="93.399mm" height="93.399mm" version="1.1" style="shape-rendering:geometricPrecision; text-rendering:geometricPrecision; image-rendering:optimizeQuality; fill-rule:evenodd; clip-rule:evenodd"
viewBox="0 0 9340 9340"
 xmlns:xlink="http://www.w3.org/1999/xlink">
 <defs>
  <style type="text/css">
   <![CDATA[
    .fil2 {fill:black}
    .fil0 {fill:#4F80B8}
    .fil1 {fill:white}
   ]]>
  </style>
 </defs>
 <g id="Слой_x0020_1">
  <metadata id="CorelCorpID_0Corel-Layer"/>
  <g id="_2619078408016">
   <rect class="fil0" transform="matrix(3.34284 3.34284 -3.34284 3.34284 4669.95 0.00724721)" width="1397" height="1397"/>
   <rect class="fil1" transform="matrix(2.276 2.276 -2.276 2.276 4669.89 1490.38)" width="1397" height="1397"/>
   <g>
    <g>
     <circle class="fil2" transform="matrix(4.03612 4.03612 -4.03612 4.03612 5714.06 3616.92)" r="69"/>
     <circle class="fil2" transform="matrix(4.03612 4.03612 -4.03612 4.03612 4667.53 4663.44)" r="69"/>
     <circle class="fil2" transform="matrix(4.03612 4.03612 -4.03612 4.03612 3621.01 5709.97)" r="69"/>
    </g>
    <g>
     <circle class="fil2" transform="matrix(-4.03612 4.03612 -4.03612 -4.03612 5714.06 5709.97)" r="69"/>
     <circle class="fil2" transform="matrix(-4.03612 4.03612 -4.03612 -4.03612 4667.53 4663.44)" r="69"/>
     <circle class="fil2" transform="matrix(-4.03612 4.03612 -4.03612 -4.03612 3621.01 3616.92)" r="69"/>
    </g>
   </g>
  </g>
 </g>
</svg>
